<svg width="1937" height="449" viewBox="0 0 1937 449" fill="none" xmlns="http://www.w3.org/2000/svg">
<g clip-path="url(#clip0_74_567)">
<path d="M202.592 352.266H272.092C275.02 349.212 275.542 347.542 271.092 344.766C275.191 330.674 271.234 328.879 263.092 326.766L264.592 320.766C251.092 312.266 241.592 245.266 257.592 242.766C260.029 240.048 260.003 238.612 256.592 236.266H250.092V233.266H254.592C257.854 223.913 253.989 223.207 251.092 218.766C255.63 209.416 258.417 204.438 263.592 195.766C262.682 193.862 261.733 193.115 259.592 192.266C257.233 192.391 255.959 192.434 253.592 192.266C253.304 190.363 252.101 189.724 249.592 188.766C247.858 188.029 247.188 188.065 244.592 187.266C251.212 173.054 251.701 166.679 237.592 162.766C224.369 164.321 223.644 171.068 227.092 187.266C224.478 187.594 223.328 187.959 221.592 188.766C220.791 190.189 219.828 190.417 220.092 192.266C217.66 191.886 215.967 191.81 212.592 192.266C209.906 193.249 209.952 194.147 210.092 195.766C214.555 204.845 217.049 209.958 221.592 218.766C217.27 223.888 216.701 227.034 218.592 233.266H222.592V236.266H216.092C211.918 238.776 213.093 240.211 214.092 242.766C234.092 245.766 221.592 309.266 210.092 320.766L211.092 326.766C202.964 326.855 200.359 329.72 202.592 344.766C199.063 347.817 198.429 349.492 202.592 352.266Z" fill="#00AAE0"/>
<path d="M281.092 351.266H306.413C316.344 340.962 326.155 330.655 335.463 320.766C323.092 299.766 320.092 268.766 330.092 256.766C330.359 254.645 329.454 253.935 327.592 252.766C325.557 242.433 328.65 233.211 339.092 212.766C334.21 211.01 330.196 212.676 320.092 221.766C317.843 220.708 317.212 219.094 318.092 212.766C318.855 200.948 316.657 198.031 310.092 196.766C303.277 199.015 301.589 202.587 302.092 212.766C302.28 218.441 302.173 220.548 301.092 221.766C290.048 212.299 285.211 210.005 280.592 212.766C291.592 232.568 294.403 241.278 293.592 252.766C291.111 253.677 290.481 254.558 290.592 256.766C301.092 271.766 296.092 307.266 285.592 320.766C284.944 323.35 285.039 324.725 286.092 326.766C282.581 327.878 281.469 328.972 280.092 331.266C277.289 340.368 278.369 344.397 281.092 351.266Z" fill="#84C344"/>
<path fill-rule="evenodd" clip-rule="evenodd" d="M205.089 58.2761C200.589 55.2742 190.089 55.7775 186.589 56.7658C173.589 58.2775 14.0919 217.266 0.589337 245.26C-0.237237 252.626 -0.965357 256.683 4.08934 265.76C71.5918 340.766 110.092 381.266 186.092 447.266C193.179 450.263 202.592 449.766 207.592 446.766C227.129 431.599 267.679 391.454 306.413 351.266H281.092C278.369 344.397 277.289 340.368 280.092 331.266C281.469 328.972 282.581 327.878 286.092 326.766C285.039 324.725 284.944 323.35 285.592 320.766C296.092 307.266 301.092 271.766 290.592 256.766C290.481 254.558 291.111 253.677 293.592 252.766C294.403 241.278 291.592 232.568 280.592 212.766C285.211 210.005 290.048 212.299 301.092 221.766C302.173 220.548 302.28 218.441 302.092 212.766C301.589 202.587 303.277 199.015 310.092 196.766C316.657 198.031 318.855 200.948 318.092 212.766C317.212 219.094 317.843 220.708 320.092 221.766C330.196 212.676 334.21 211.01 339.092 212.766C328.65 233.211 325.557 242.433 327.592 252.766C329.454 253.935 330.359 254.645 330.092 256.766C320.092 268.766 323.092 299.766 335.463 320.766C360.462 294.204 381.823 270.654 392.089 258.26C394.104 249.251 394.227 246.632 390.092 240.766C375.993 220.766 228.592 73.9541 205.089 58.2761ZM178.089 301.76C178.389 323.091 178.391 335.132 178.089 356.76C175.446 358.851 173.35 359.393 167.589 358.26C119.174 311.425 68.5918 263.766 67.5893 255.76C65.7783 248.384 67.38 244.897 70.5893 238.76C158.053 151.258 179.08 131.364 183.089 130.76C200.592 124.266 215.092 137.766 209.589 158.76C180.109 193.986 163.804 213.699 137.589 248.26V258.26L178.089 301.76ZM272.092 352.266H202.592C198.429 349.492 199.063 347.817 202.592 344.766C200.359 329.72 202.964 326.855 211.092 326.766L210.092 320.766C221.592 309.266 234.092 245.766 214.092 242.766C213.093 240.211 211.918 238.776 216.092 236.266H222.592V233.266H218.592C216.701 227.034 217.27 223.888 221.592 218.766C217.049 209.958 214.555 204.845 210.092 195.766C209.952 194.147 209.906 193.249 212.592 192.266C215.967 191.81 217.66 191.886 220.092 192.266C219.828 190.417 220.791 190.189 221.592 188.766C223.328 187.959 224.478 187.594 227.092 187.266C223.644 171.068 224.369 164.321 237.592 162.766C251.701 166.679 251.212 173.054 244.592 187.266C247.188 188.065 247.858 188.029 249.592 188.766C252.101 189.724 253.304 190.363 253.592 192.266C255.959 192.434 257.233 192.391 259.592 192.266C261.733 193.115 262.682 193.862 263.592 195.766C258.417 204.438 255.63 209.416 251.092 218.766C253.989 223.207 257.854 223.913 254.592 233.266H250.092V236.266H256.592C260.003 238.612 260.029 240.048 257.592 242.766C241.592 245.266 251.092 312.266 264.592 320.766L263.092 326.766C271.234 328.879 275.191 330.674 271.092 344.766C275.542 347.542 275.02 349.212 272.092 352.266Z" fill="#014263"/>
<path d="M558.75 255.75C539.583 255.75 523.083 252 509.25 244.5C495.583 237 485.083 226.5 477.75 213C470.417 199.333 466.75 183.25 466.75 164.75C466.75 146.25 470.417 130.25 477.75 116.75C485.083 103.25 495.583 92.75 509.25 85.25C523.083 77.75 539.583 74 558.75 74C570.75 74 582.167 75.8333 593 79.5C604 83.1667 613 88.25 620 94.75L607.5 125.75C600 119.75 592.333 115.417 584.5 112.75C576.833 109.917 568.75 108.5 560.25 108.5C543.25 108.5 530.333 113.417 521.5 123.25C512.667 132.917 508.25 146.75 508.25 164.75C508.25 182.917 512.667 196.917 521.5 206.75C530.333 216.417 543.25 221.25 560.25 221.25C568.75 221.25 576.833 219.917 584.5 217.25C592.333 214.417 600 210 607.5 204L620 235C613 241.333 604 246.417 593 250.25C582.167 253.917 570.75 255.75 558.75 255.75ZM646.072 253V76.75H716.572C736.906 76.75 754.156 80.1667 768.322 87C782.656 93.8333 793.572 103.833 801.072 117C808.572 130 812.322 145.917 812.322 164.75C812.322 183.583 808.572 199.583 801.072 212.75C793.572 225.917 782.656 235.917 768.322 242.75C754.156 249.583 736.906 253 716.572 253H646.072ZM685.322 221H714.072C733.572 221 747.989 216.417 757.322 207.25C766.822 197.917 771.572 183.75 771.572 164.75C771.572 145.75 766.822 131.667 757.322 122.5C747.822 113.333 733.406 108.75 714.072 108.75H685.322V221ZM816.549 255.5L814.049 223.75L833.549 222.75C838.215 222.417 841.965 221.5 844.799 220C847.799 218.333 850.049 216 851.549 213C853.049 210 853.799 206.25 853.799 201.75V76.75H893.049V201.25C893.049 212.25 891.049 221.583 887.049 229.25C883.215 236.917 877.299 242.833 869.299 247C861.465 251.167 851.632 253.667 839.799 254.5L816.549 255.5ZM929.275 253V76.75H1052.28V107.25H967.025V148.25H1046.53V178.75H967.025V222.5H1052.28V253H929.275ZM1197.63 255.75C1191.3 255.75 1184.88 255 1178.38 253.5C1172.05 252 1165.97 249.833 1160.13 247C1154.3 244 1149.05 240.5 1144.38 236.5L1156.88 207.5C1163.05 212.667 1169.63 216.583 1176.63 219.25C1183.63 221.917 1190.8 223.25 1198.13 223.25C1204.97 223.25 1210.97 222.167 1216.13 220C1221.47 217.667 1225.88 214.25 1229.38 209.75C1233.05 205.25 1235.8 199.667 1237.63 193C1239.47 186.333 1240.38 178.583 1240.38 169.75V153.75H1243.63C1242.3 161.417 1239.47 168.083 1235.13 173.75C1230.97 179.417 1225.63 183.75 1219.13 186.75C1212.8 189.75 1205.63 191.25 1197.63 191.25C1187.63 191.25 1178.63 188.833 1170.63 184C1162.63 179 1156.3 172.167 1151.63 163.5C1147.13 154.833 1144.88 145.083 1144.88 134.25C1144.88 122.583 1147.47 112.25 1152.63 103.25C1157.8 94.0833 1164.88 86.9167 1173.88 81.75C1183.05 76.5833 1193.63 74 1205.63 74C1220.8 74 1233.72 77.5 1244.38 84.5C1255.05 91.3333 1263.13 101.333 1268.63 114.5C1274.3 127.667 1277.13 143.667 1277.13 162.5C1277.13 182.167 1273.97 199 1267.63 213C1261.3 226.833 1252.22 237.417 1240.38 244.75C1228.55 252.083 1214.3 255.75 1197.63 255.75ZM1207.63 160.75C1212.97 160.75 1217.63 159.583 1221.63 157.25C1225.8 154.917 1228.97 151.667 1231.13 147.5C1233.3 143.167 1234.38 138.167 1234.38 132.5C1234.38 126.833 1233.3 121.917 1231.13 117.75C1228.97 113.583 1225.8 110.333 1221.63 108C1217.63 105.5 1212.97 104.25 1207.63 104.25C1202.3 104.25 1197.63 105.5 1193.63 108C1189.63 110.333 1186.47 113.583 1184.13 117.75C1181.97 121.917 1180.88 126.833 1180.88 132.5C1180.88 138.167 1181.97 143.167 1184.13 147.5C1186.47 151.667 1189.63 154.917 1193.63 157.25C1197.8 159.583 1202.47 160.75 1207.63 160.75ZM1307.72 253V224L1364.22 166C1368.88 161.167 1372.63 156.667 1375.47 152.5C1378.47 148.333 1380.63 144.333 1381.97 140.5C1383.47 136.667 1384.22 132.75 1384.22 128.75C1384.22 121.417 1381.8 115.917 1376.97 112.25C1372.3 108.417 1365.38 106.5 1356.22 106.5C1348.72 106.5 1341.3 107.917 1333.97 110.75C1326.63 113.417 1319.47 117.667 1312.47 123.5L1299.97 94.5C1307.3 88.3333 1316.38 83.4167 1327.22 79.75C1338.22 75.9167 1349.63 74 1361.47 74C1374.63 74 1385.8 76 1394.97 80C1404.13 83.8333 1411.05 89.5 1415.72 97C1420.55 104.5 1422.97 113.667 1422.97 124.5C1422.97 130 1422.3 135.333 1420.97 140.5C1419.63 145.5 1417.63 150.5 1414.97 155.5C1412.47 160.5 1409.22 165.583 1405.22 170.75C1401.22 175.917 1396.47 181.167 1390.97 186.5L1346.72 230.5L1346.47 221H1429.72V253H1307.72Z" fill="#014263"/>
<path d="M463.207 406V336.205H517.36V348.778H478.849V364.321H514.588V376.894H478.849V393.427H517.36V406H463.207ZM486.076 330.265L499.243 312.544H515.974L497.659 330.265H486.076ZM569.932 407.089C561.946 407.089 554.983 405.637 549.043 402.733C543.169 399.829 538.615 395.704 535.381 390.358C532.147 384.946 530.53 378.544 530.53 371.152C530.53 363.694 532.147 357.292 535.381 351.946C538.681 346.6 543.268 342.475 549.142 339.571C555.016 336.667 561.946 335.215 569.932 335.215C575.476 335.215 580.591 335.908 585.277 337.294C590.029 338.68 593.989 340.759 597.157 343.531L591.811 355.807C588.445 353.365 585.079 351.616 581.713 350.56C578.347 349.438 574.651 348.877 570.625 348.877C563.299 348.877 557.59 350.791 553.498 354.619C549.406 358.381 547.36 363.859 547.36 371.053C547.36 378.247 549.373 383.758 553.399 387.586C557.491 391.414 563.233 393.328 570.625 393.328C574.651 393.328 578.347 392.8 581.713 391.744C585.079 390.622 588.445 388.84 591.811 386.398L597.157 398.674C593.989 401.446 590.029 403.558 585.277 405.01C580.591 406.396 575.476 407.089 569.932 407.089ZM611.224 406V336.205H627.361V364.024H665.971V336.205H682.009V406H665.971V377.191H627.361V406H611.224ZM700.459 406V336.205H754.612V348.778H716.101V364.321H751.84V376.894H716.101V393.427H754.612V406H700.459ZM807.184 407.089C799.198 407.089 792.235 405.637 786.295 402.733C780.421 399.829 775.867 395.704 772.633 390.358C769.399 384.946 767.782 378.544 767.782 371.152C767.782 363.694 769.399 357.292 772.633 351.946C775.933 346.6 780.52 342.475 786.394 339.571C792.268 336.667 799.198 335.215 807.184 335.215C812.728 335.215 817.843 335.908 822.529 337.294C827.281 338.68 831.241 340.759 834.409 343.531L829.063 355.807C825.697 353.365 822.331 351.616 818.965 350.56C815.599 349.438 811.903 348.877 807.877 348.877C800.551 348.877 794.842 350.791 790.75 354.619C786.658 358.381 784.612 363.859 784.612 371.053C784.612 378.247 786.625 383.758 790.651 387.586C794.743 391.414 800.485 393.328 807.877 393.328C811.903 393.328 815.599 392.8 818.965 391.744C822.331 390.622 825.697 388.84 829.063 386.398L834.409 398.674C831.241 401.446 827.281 403.558 822.529 405.01C817.843 406.396 812.728 407.089 807.184 407.089ZM875.049 406.99C870.891 406.99 866.832 406.693 862.872 406.099C858.912 405.505 855.249 404.647 851.883 403.525C848.517 402.403 845.547 401.017 842.973 399.367L848.121 386.992C850.827 388.576 853.599 389.896 856.437 390.952C859.341 391.942 862.377 392.701 865.545 393.229C868.779 393.691 872.112 393.922 875.544 393.922C880.692 393.922 884.586 393.262 887.226 391.942C889.866 390.556 891.186 388.576 891.186 386.002C891.186 384.484 890.757 383.296 889.899 382.438C889.107 381.514 887.886 380.788 886.236 380.26C884.652 379.732 882.672 379.303 880.296 378.973L865.941 376.795C858.747 375.739 853.401 373.528 849.903 370.162C846.405 366.796 844.656 362.407 844.656 356.995C844.656 352.507 845.976 348.646 848.616 345.412C851.322 342.112 855.051 339.604 859.803 337.888C864.621 336.106 870.165 335.215 876.435 335.215C880.197 335.215 883.827 335.512 887.325 336.106C890.823 336.7 894.024 337.591 896.928 338.779C899.832 339.967 902.373 341.419 904.551 343.135L899.502 355.114C896.202 352.738 892.638 351.022 888.81 349.966C884.982 348.844 880.692 348.283 875.94 348.283C872.706 348.283 869.934 348.613 867.624 349.273C865.314 349.867 863.565 350.758 862.377 351.946C861.189 353.134 860.595 354.586 860.595 356.302C860.595 358.48 861.42 360.13 863.07 361.252C864.786 362.308 867.492 363.133 871.188 363.727L884.85 365.905C892.242 367.027 897.786 369.205 901.482 372.439C905.244 375.607 907.125 379.864 907.125 385.21C907.125 389.632 905.805 393.493 903.165 396.793C900.591 400.027 896.895 402.535 892.077 404.317C887.259 406.099 881.583 406.99 875.049 406.99ZM952.406 406V336.205H968.543V364.024H1007.15V336.205H1023.19V406H1007.15V377.191H968.543V406H952.406ZM1032.83 406L1068.47 336.205H1082.43L1118.07 406H1101.64L1092.13 386.695L1098.96 391.645H1051.74L1058.57 386.695L1049.07 406H1032.83ZM1075.2 351.649L1060.25 382.834L1056.99 379.27H1093.72L1090.55 382.834L1075.5 351.649H1075.2ZM1160.37 406.99C1149.22 406.99 1140.74 404.482 1134.93 399.466C1129.12 394.45 1126.22 387.091 1126.22 377.389V336.205H1142.35V376.894C1142.35 382.372 1143.87 386.497 1146.91 389.269C1149.94 391.975 1154.43 393.328 1160.37 393.328C1166.38 393.328 1170.87 391.975 1173.84 389.269C1176.81 386.497 1178.29 382.372 1178.29 376.894V336.205H1194.33V377.389C1194.33 387.091 1191.46 394.45 1185.72 399.466C1179.97 404.482 1171.53 406.99 1160.37 406.99ZM1231 406V349.372H1204.37V336.205H1273.76V349.372H1247.13V406H1231ZM1310.11 406.99C1305.95 406.99 1301.89 406.693 1297.93 406.099C1293.97 405.505 1290.31 404.647 1286.94 403.525C1283.58 402.403 1280.61 401.017 1278.03 399.367L1283.18 386.992C1285.89 388.576 1288.66 389.896 1291.5 390.952C1294.4 391.942 1297.44 392.701 1300.6 393.229C1303.84 393.691 1307.17 393.922 1310.6 393.922C1315.75 393.922 1319.64 393.262 1322.28 391.942C1324.92 390.556 1326.24 388.576 1326.24 386.002C1326.24 384.484 1325.82 383.296 1324.96 382.438C1324.17 381.514 1322.94 380.788 1321.29 380.26C1319.71 379.732 1317.73 379.303 1315.35 378.973L1301 376.795C1293.81 375.739 1288.46 373.528 1284.96 370.162C1281.46 366.796 1279.71 362.407 1279.71 356.995C1279.71 352.507 1281.03 348.646 1283.67 345.412C1286.38 342.112 1290.11 339.604 1294.86 337.888C1299.68 336.106 1305.22 335.215 1311.49 335.215C1315.26 335.215 1318.89 335.512 1322.38 336.106C1325.88 336.7 1329.08 337.591 1331.99 338.779C1334.89 339.967 1337.43 341.419 1339.61 343.135L1334.56 355.114C1331.26 352.738 1327.7 351.022 1323.87 349.966C1320.04 348.844 1315.75 348.283 1311 348.283C1307.76 348.283 1304.99 348.613 1302.68 349.273C1300.37 349.867 1298.62 350.758 1297.44 351.946C1296.25 353.134 1295.65 354.586 1295.65 356.302C1295.65 358.48 1296.48 360.13 1298.13 361.252C1299.84 362.308 1302.55 363.133 1306.25 363.727L1319.91 365.905C1327.3 367.027 1332.84 369.205 1336.54 372.439C1340.3 375.607 1342.18 379.864 1342.18 385.21C1342.18 389.632 1340.86 393.493 1338.22 396.793C1335.65 400.027 1331.95 402.535 1327.14 404.317C1322.32 406.099 1316.64 406.99 1310.11 406.99ZM1354.36 385.408V373.231H1388.22V385.408H1354.36ZM1404.96 406V336.205H1436.25C1445.03 336.205 1452.45 337.558 1458.52 340.264C1464.59 342.97 1469.21 346.897 1472.38 352.045C1475.55 357.193 1477.13 363.529 1477.13 371.053C1477.13 378.577 1475.55 384.946 1472.38 390.16C1469.21 395.308 1464.59 399.235 1458.52 401.941C1452.45 404.647 1445.03 406 1436.25 406H1404.96ZM1421.1 392.932H1435.26C1443.84 392.932 1450.17 391.15 1454.27 387.586C1458.42 384.022 1460.5 378.511 1460.5 371.053C1460.5 363.595 1458.42 358.117 1454.27 354.619C1450.17 351.055 1443.84 349.273 1435.26 349.273H1421.1V392.932ZM1492.85 406V336.205H1547V348.778H1508.49V364.321H1544.23V376.894H1508.49V393.427H1547V406H1492.85ZM1560.87 385.408V373.231H1594.72V385.408H1560.87ZM1637.56 406.99C1633.4 406.99 1629.35 406.693 1625.39 406.099C1621.43 405.505 1617.76 404.647 1614.4 403.525C1611.03 402.403 1608.06 401.017 1605.49 399.367L1610.63 386.992C1613.34 388.576 1616.11 389.896 1618.95 390.952C1621.85 391.942 1624.89 392.701 1628.06 393.229C1631.29 393.691 1634.63 393.922 1638.06 393.922C1643.21 393.922 1647.1 393.262 1649.74 391.942C1652.38 390.556 1653.7 388.576 1653.7 386.002C1653.7 384.484 1653.27 383.296 1652.41 382.438C1651.62 381.514 1650.4 380.788 1648.75 380.26C1647.17 379.732 1645.19 379.303 1642.81 378.973L1628.45 376.795C1621.26 375.739 1615.91 373.528 1612.42 370.162C1608.92 366.796 1607.17 362.407 1607.17 356.995C1607.17 352.507 1608.49 348.646 1611.13 345.412C1613.84 342.112 1617.56 339.604 1622.32 337.888C1627.13 336.106 1632.68 335.215 1638.95 335.215C1642.71 335.215 1646.34 335.512 1649.84 336.106C1653.34 336.7 1656.54 337.591 1659.44 338.779C1662.35 339.967 1664.89 341.419 1667.06 343.135L1662.02 355.114C1658.72 352.738 1655.15 351.022 1651.32 349.966C1647.5 348.844 1643.21 348.283 1638.45 348.283C1635.22 348.283 1632.45 348.613 1630.14 349.273C1627.83 349.867 1626.08 350.758 1624.89 351.946C1623.7 353.134 1623.11 354.586 1623.11 356.302C1623.11 358.48 1623.93 360.13 1625.58 361.252C1627.3 362.308 1630.01 363.133 1633.7 363.727L1647.36 365.905C1654.76 367.027 1660.3 369.205 1664 372.439C1667.76 375.607 1669.64 379.864 1669.64 385.21C1669.64 389.632 1668.32 393.493 1665.68 396.793C1663.1 400.027 1659.41 402.535 1654.59 404.317C1649.77 406.099 1644.1 406.99 1637.56 406.99ZM1683.01 406V336.205H1737.17V348.778H1698.66V364.321H1734.4V376.894H1698.66V393.427H1737.17V406H1683.01ZM1753.11 406V336.205H1769.24V406H1753.11ZM1787.53 406V336.205H1800.1L1843.16 384.517H1841.48V336.205H1856.73V406H1843.76L1801.19 357.985H1802.87V406H1787.53ZM1875.12 406V336.205H1929.27V348.778H1890.76V364.321H1926.5V376.894H1890.76V393.427H1929.27V406H1875.12Z" fill="#014263"/>
<path d="M1937 253C1872.75 178.692 1844.1 142 1821.08 142C1775.91 148.779 1753.75 159.101 1666.81 199.979C1636.46 214.249 1602.42 231.463 1561.12 253H1937Z" fill="#84C344"/>
<path d="M1481 253H1561.12C1602.42 231.463 1636.46 214.249 1666.81 199.979C1493.79 153.015 1509.98 183.519 1481 253Z" fill="#00AAE0"/>
</g>
<defs>
<clipPath id="clip0_74_567">
<rect width="1937" height="449" fill="white"/>
</clipPath>
</defs>
</svg>
