<svg width="2479" height="2479" viewBox="0 0 2479 2479" fill="none" xmlns="http://www.w3.org/2000/svg">
<path d="M1261.52 1247.65H1522.42C1533.41 1236.18 1535.37 1229.91 1518.67 1219.49C1534.06 1166.56 1519.2 1159.82 1488.64 1151.89L1494.27 1129.35C1443.59 1097.43 1407.93 845.804 1467.99 836.415C1477.14 826.208 1477.04 820.816 1464.23 812.004H1439.83V800.737H1456.73C1468.97 765.614 1454.46 762.962 1443.59 746.281C1460.63 711.168 1471.09 692.473 1490.51 659.903C1487.1 652.754 1483.54 649.947 1475.5 646.758C1466.64 647.228 1461.86 647.39 1452.97 646.758C1451.89 639.612 1447.38 637.214 1437.96 633.613C1431.45 630.849 1428.93 630.981 1419.19 627.98C1444.04 574.607 1445.87 550.667 1392.91 535.968C1343.27 541.81 1340.55 567.149 1353.49 627.98C1343.68 629.212 1339.36 630.585 1332.85 633.613C1329.84 638.96 1326.23 639.815 1327.22 646.758C1318.08 645.334 1311.73 645.048 1299.06 646.758C1288.98 650.452 1289.15 653.823 1289.68 659.903C1306.43 693.999 1315.79 713.204 1332.85 746.281C1316.62 765.519 1314.49 777.334 1321.58 800.737H1336.6V812.004H1312.2C1296.53 821.433 1300.94 826.822 1304.69 836.415C1379.77 847.682 1332.85 1086.16 1289.68 1129.35L1293.43 1151.89C1262.92 1152.22 1253.14 1162.98 1261.52 1219.49C1248.27 1230.95 1245.89 1237.24 1261.52 1247.65Z" fill="#00AAE0"/>
<path d="M1556.21 1243.9H1651.26C1688.54 1205.2 1725.37 1166.49 1760.31 1129.35C1713.87 1050.48 1702.61 934.061 1740.15 888.994C1741.16 881.031 1737.76 878.362 1730.77 873.971C1723.13 835.166 1734.74 800.533 1773.94 723.748C1755.61 717.156 1740.54 723.413 1702.61 757.548C1694.17 753.576 1691.8 747.514 1695.1 723.748C1697.97 679.365 1689.72 668.412 1665.07 663.658C1639.49 672.104 1633.15 685.52 1635.04 723.748C1635.75 745.062 1635.34 752.975 1631.29 757.548C1589.83 721.995 1571.67 713.378 1554.33 723.748C1595.62 798.118 1606.18 830.828 1603.13 873.971C1593.82 877.394 1591.45 880.702 1591.87 888.994C1631.29 945.328 1612.52 1078.65 1573.1 1129.35C1570.67 1139.06 1571.02 1144.22 1574.98 1151.89C1561.8 1156.06 1557.62 1160.17 1552.45 1168.79C1541.93 1202.97 1545.98 1218.1 1556.21 1243.9Z" fill="#84C344"/>
<path fill-rule="evenodd" clip-rule="evenodd" d="M1270.9 143.548C1254 132.274 1214.59 134.164 1201.45 137.876C1152.65 143.553 553.901 740.648 503.212 845.784C500.109 873.448 497.376 888.685 516.351 922.774C769.753 1204.46 914.28 1356.56 1199.58 1604.43C1226.19 1615.69 1261.52 1613.82 1280.29 1602.56C1353.63 1545.6 1505.86 1394.83 1651.26 1243.9H1556.21C1545.98 1218.1 1541.93 1202.97 1552.45 1168.79C1557.62 1160.17 1561.8 1156.06 1574.98 1151.89C1571.02 1144.22 1570.67 1139.06 1573.1 1129.35C1612.52 1078.65 1631.29 945.328 1591.87 888.994C1591.45 880.702 1593.82 877.394 1603.13 873.971C1606.18 830.828 1595.62 798.118 1554.33 723.748C1571.67 713.378 1589.83 721.995 1631.29 757.548C1635.34 752.975 1635.75 745.062 1635.04 723.748C1633.15 685.52 1639.49 672.104 1665.07 663.658C1689.72 668.412 1697.97 679.365 1695.1 723.748C1691.8 747.514 1694.17 753.576 1702.61 757.548C1740.54 723.413 1755.61 717.156 1773.94 723.748C1734.74 800.533 1723.13 835.166 1730.77 873.971C1737.76 878.362 1741.16 881.031 1740.15 888.994C1702.61 934.061 1713.87 1050.48 1760.31 1129.35C1854.16 1029.6 1934.35 941.153 1972.89 894.607C1980.45 860.771 1980.91 850.936 1965.39 828.904C1912.46 753.792 1359.12 202.428 1270.9 143.548ZM1169.54 1057.98C1170.66 1138.08 1170.67 1183.31 1169.54 1264.53C1159.62 1272.38 1151.75 1274.42 1130.12 1270.17C948.373 1094.27 758.491 915.283 754.727 885.218C747.929 857.516 753.942 844.421 765.989 821.373C1094.32 492.75 1173.26 418.038 1188.31 415.769C1254.01 391.378 1308.45 442.078 1287.79 520.926C1177.12 653.22 1115.91 727.252 1017.5 857.051V894.607L1169.54 1057.98ZM1522.42 1247.65H1261.52C1245.89 1237.24 1248.27 1230.95 1261.52 1219.49C1253.14 1162.98 1262.92 1152.22 1293.43 1151.89L1289.68 1129.35C1332.85 1086.16 1379.77 847.682 1304.69 836.415C1300.94 826.822 1296.53 821.433 1312.2 812.004H1336.6V800.737H1321.58C1314.49 777.334 1316.62 765.519 1332.85 746.281C1315.79 713.204 1306.43 693.999 1289.68 659.903C1289.15 653.823 1288.98 650.452 1299.06 646.758C1311.73 645.048 1318.08 645.334 1327.22 646.758C1326.23 639.815 1329.84 638.96 1332.85 633.613C1339.36 630.585 1343.68 629.212 1353.49 627.98C1340.55 567.149 1343.27 541.81 1392.91 535.968C1445.87 550.667 1444.04 574.607 1419.19 627.98C1428.93 630.981 1431.45 630.849 1437.96 633.613C1447.38 637.214 1451.89 639.612 1452.97 646.758C1461.86 647.39 1466.64 647.228 1475.5 646.758C1483.54 649.947 1487.1 652.754 1490.51 659.903C1471.09 692.473 1460.63 711.168 1443.59 746.281C1454.46 762.962 1468.97 765.614 1456.73 800.737H1439.83V812.004H1464.23C1477.04 820.816 1477.14 826.208 1467.99 836.415C1407.93 845.804 1443.59 1097.43 1494.27 1129.35L1488.64 1151.89C1519.2 1159.82 1534.06 1166.56 1518.67 1219.49C1535.37 1229.91 1533.41 1236.18 1522.42 1247.65Z" fill="#014263"/>
<path d="M602.75 1867.75C583.583 1867.75 567.083 1864 553.25 1856.5C539.583 1849 529.083 1838.5 521.75 1825C514.417 1811.33 510.75 1795.25 510.75 1776.75C510.75 1758.25 514.417 1742.25 521.75 1728.75C529.083 1715.25 539.583 1704.75 553.25 1697.25C567.083 1689.75 583.583 1686 602.75 1686C614.75 1686 626.167 1687.83 637 1691.5C648 1695.17 657 1700.25 664 1706.75L651.5 1737.75C644 1731.75 636.333 1727.42 628.5 1724.75C620.833 1721.92 612.75 1720.5 604.25 1720.5C587.25 1720.5 574.333 1725.42 565.5 1735.25C556.667 1744.92 552.25 1758.75 552.25 1776.75C552.25 1794.92 556.667 1808.92 565.5 1818.75C574.333 1828.42 587.25 1833.25 604.25 1833.25C612.75 1833.25 620.833 1831.92 628.5 1829.25C636.333 1826.42 644 1822 651.5 1816L664 1847C657 1853.33 648 1858.42 637 1862.25C626.167 1865.92 614.75 1867.75 602.75 1867.75ZM690.072 1865V1688.75H760.572C780.906 1688.75 798.156 1692.17 812.322 1699C826.656 1705.83 837.572 1715.83 845.072 1729C852.572 1742 856.322 1757.92 856.322 1776.75C856.322 1795.58 852.572 1811.58 845.072 1824.75C837.572 1837.92 826.656 1847.92 812.322 1854.75C798.156 1861.58 780.906 1865 760.572 1865H690.072ZM729.322 1833H758.072C777.572 1833 791.989 1828.42 801.322 1819.25C810.822 1809.92 815.572 1795.75 815.572 1776.75C815.572 1757.75 810.822 1743.67 801.322 1734.5C791.822 1725.33 777.406 1720.75 758.072 1720.75H729.322V1833ZM860.549 1867.5L858.049 1835.75L877.549 1834.75C882.215 1834.42 885.965 1833.5 888.799 1832C891.799 1830.33 894.049 1828 895.549 1825C897.049 1822 897.799 1818.25 897.799 1813.75V1688.75H937.049V1813.25C937.049 1824.25 935.049 1833.58 931.049 1841.25C927.215 1848.92 921.299 1854.83 913.299 1859C905.465 1863.17 895.632 1865.67 883.799 1866.5L860.549 1867.5ZM973.275 1865V1688.75H1096.28V1719.25H1011.03V1760.25H1090.53V1790.75H1011.03V1834.5H1096.28V1865H973.275ZM1241.63 1867.75C1235.3 1867.75 1228.88 1867 1222.38 1865.5C1216.05 1864 1209.97 1861.83 1204.13 1859C1198.3 1856 1193.05 1852.5 1188.38 1848.5L1200.88 1819.5C1207.05 1824.67 1213.63 1828.58 1220.63 1831.25C1227.63 1833.92 1234.8 1835.25 1242.13 1835.25C1248.97 1835.25 1254.97 1834.17 1260.13 1832C1265.47 1829.67 1269.88 1826.25 1273.38 1821.75C1277.05 1817.25 1279.8 1811.67 1281.63 1805C1283.47 1798.33 1284.38 1790.58 1284.38 1781.75V1765.75H1287.63C1286.3 1773.42 1283.47 1780.08 1279.13 1785.75C1274.97 1791.42 1269.63 1795.75 1263.13 1798.75C1256.8 1801.75 1249.63 1803.25 1241.63 1803.25C1231.63 1803.25 1222.63 1800.83 1214.63 1796C1206.63 1791 1200.3 1784.17 1195.63 1775.5C1191.13 1766.83 1188.88 1757.08 1188.88 1746.25C1188.88 1734.58 1191.47 1724.25 1196.63 1715.25C1201.8 1706.08 1208.88 1698.92 1217.88 1693.75C1227.05 1688.58 1237.63 1686 1249.63 1686C1264.8 1686 1277.72 1689.5 1288.38 1696.5C1299.05 1703.33 1307.13 1713.33 1312.63 1726.5C1318.3 1739.67 1321.13 1755.67 1321.13 1774.5C1321.13 1794.17 1317.97 1811 1311.63 1825C1305.3 1838.83 1296.22 1849.42 1284.38 1856.75C1272.55 1864.08 1258.3 1867.75 1241.63 1867.75ZM1251.63 1772.75C1256.97 1772.75 1261.63 1771.58 1265.63 1769.25C1269.8 1766.92 1272.97 1763.67 1275.13 1759.5C1277.3 1755.17 1278.38 1750.17 1278.38 1744.5C1278.38 1738.83 1277.3 1733.92 1275.13 1729.75C1272.97 1725.58 1269.8 1722.33 1265.63 1720C1261.63 1717.5 1256.97 1716.25 1251.63 1716.25C1246.3 1716.25 1241.63 1717.5 1237.63 1720C1233.63 1722.33 1230.47 1725.58 1228.13 1729.75C1225.97 1733.92 1224.88 1738.83 1224.88 1744.5C1224.88 1750.17 1225.97 1755.17 1228.13 1759.5C1230.47 1763.67 1233.63 1766.92 1237.63 1769.25C1241.8 1771.58 1246.47 1772.75 1251.63 1772.75ZM1351.72 1865V1836L1408.22 1778C1412.88 1773.17 1416.63 1768.67 1419.47 1764.5C1422.47 1760.33 1424.63 1756.33 1425.97 1752.5C1427.47 1748.67 1428.22 1744.75 1428.22 1740.75C1428.22 1733.42 1425.8 1727.92 1420.97 1724.25C1416.3 1720.42 1409.38 1718.5 1400.22 1718.5C1392.72 1718.5 1385.3 1719.92 1377.97 1722.75C1370.63 1725.42 1363.47 1729.67 1356.47 1735.5L1343.97 1706.5C1351.3 1700.33 1360.38 1695.42 1371.22 1691.75C1382.22 1687.92 1393.63 1686 1405.47 1686C1418.63 1686 1429.8 1688 1438.97 1692C1448.13 1695.83 1455.05 1701.5 1459.72 1709C1464.55 1716.5 1466.97 1725.67 1466.97 1736.5C1466.97 1742 1466.3 1747.33 1464.97 1752.5C1463.63 1757.5 1461.63 1762.5 1458.97 1767.5C1456.47 1772.5 1453.22 1777.58 1449.22 1782.75C1445.22 1787.92 1440.47 1793.17 1434.97 1798.5L1390.72 1842.5L1390.47 1833H1473.72V1865H1351.72Z" fill="#014263"/>
<path d="M507.207 2018V1948.2H561.36V1960.78H522.849V1976.32H558.588V1988.89H522.849V2005.43H561.36V2018H507.207ZM530.076 1942.26L543.243 1924.54H559.974L541.659 1942.26H530.076ZM613.932 2019.09C605.946 2019.09 598.983 2017.64 593.043 2014.73C587.169 2011.83 582.615 2007.7 579.381 2002.36C576.147 1996.95 574.53 1990.54 574.53 1983.15C574.53 1975.69 576.147 1969.29 579.381 1963.95C582.681 1958.6 587.268 1954.47 593.142 1951.57C599.016 1948.67 605.946 1947.21 613.932 1947.21C619.476 1947.21 624.591 1947.91 629.277 1949.29C634.029 1950.68 637.989 1952.76 641.157 1955.53L635.811 1967.81C632.445 1965.36 629.079 1963.62 625.713 1962.56C622.347 1961.44 618.651 1960.88 614.625 1960.88C607.299 1960.88 601.59 1962.79 597.498 1966.62C593.406 1970.38 591.36 1975.86 591.36 1983.05C591.36 1990.25 593.373 1995.76 597.399 1999.59C601.491 2003.41 607.233 2005.33 614.625 2005.33C618.651 2005.33 622.347 2004.8 625.713 2003.74C629.079 2002.62 632.445 2000.84 635.811 1998.4L641.157 2010.67C637.989 2013.45 634.029 2015.56 629.277 2017.01C624.591 2018.4 619.476 2019.09 613.932 2019.09ZM655.224 2018V1948.2H671.361V1976.02H709.971V1948.2H726.009V2018H709.971V1989.19H671.361V2018H655.224ZM744.459 2018V1948.2H798.612V1960.78H760.101V1976.32H795.84V1988.89H760.101V2005.43H798.612V2018H744.459ZM851.184 2019.09C843.198 2019.09 836.235 2017.64 830.295 2014.73C824.421 2011.83 819.867 2007.7 816.633 2002.36C813.399 1996.95 811.782 1990.54 811.782 1983.15C811.782 1975.69 813.399 1969.29 816.633 1963.95C819.933 1958.6 824.52 1954.47 830.394 1951.57C836.268 1948.67 843.198 1947.21 851.184 1947.21C856.728 1947.21 861.843 1947.91 866.529 1949.29C871.281 1950.68 875.241 1952.76 878.409 1955.53L873.063 1967.81C869.697 1965.36 866.331 1963.62 862.965 1962.56C859.599 1961.44 855.903 1960.88 851.877 1960.88C844.551 1960.88 838.842 1962.79 834.75 1966.62C830.658 1970.38 828.612 1975.86 828.612 1983.05C828.612 1990.25 830.625 1995.76 834.651 1999.59C838.743 2003.41 844.485 2005.33 851.877 2005.33C855.903 2005.33 859.599 2004.8 862.965 2003.74C866.331 2002.62 869.697 2000.84 873.063 1998.4L878.409 2010.67C875.241 2013.45 871.281 2015.56 866.529 2017.01C861.843 2018.4 856.728 2019.09 851.184 2019.09ZM919.049 2018.99C914.891 2018.99 910.832 2018.69 906.872 2018.1C902.912 2017.5 899.249 2016.65 895.883 2015.52C892.517 2014.4 889.547 2013.02 886.973 2011.37L892.121 1998.99C894.827 2000.58 897.599 2001.9 900.437 2002.95C903.341 2003.94 906.377 2004.7 909.545 2005.23C912.779 2005.69 916.112 2005.92 919.544 2005.92C924.692 2005.92 928.586 2005.26 931.226 2003.94C933.866 2002.56 935.186 2000.58 935.186 1998C935.186 1996.48 934.757 1995.3 933.899 1994.44C933.107 1993.51 931.886 1992.79 930.236 1992.26C928.652 1991.73 926.672 1991.3 924.296 1990.97L909.941 1988.79C902.747 1987.74 897.401 1985.53 893.903 1982.16C890.405 1978.8 888.656 1974.41 888.656 1968.99C888.656 1964.51 889.976 1960.65 892.616 1957.41C895.322 1954.11 899.051 1951.6 903.803 1949.89C908.621 1948.11 914.165 1947.21 920.435 1947.21C924.197 1947.21 927.827 1947.51 931.325 1948.11C934.823 1948.7 938.024 1949.59 940.928 1950.78C943.832 1951.97 946.373 1953.42 948.551 1955.13L943.502 1967.11C940.202 1964.74 936.638 1963.02 932.81 1961.97C928.982 1960.84 924.692 1960.28 919.94 1960.28C916.706 1960.28 913.934 1960.61 911.624 1961.27C909.314 1961.87 907.565 1962.76 906.377 1963.95C905.189 1965.13 904.595 1966.59 904.595 1968.3C904.595 1970.48 905.42 1972.13 907.07 1973.25C908.786 1974.31 911.492 1975.13 915.188 1975.73L928.85 1977.9C936.242 1979.03 941.786 1981.2 945.482 1984.44C949.244 1987.61 951.125 1991.86 951.125 1997.21C951.125 2001.63 949.805 2005.49 947.165 2008.79C944.591 2012.03 940.895 2014.53 936.077 2016.32C931.259 2018.1 925.583 2018.99 919.049 2018.99ZM996.406 2018V1948.2H1012.54V1976.02H1051.15V1948.2H1067.19V2018H1051.15V1989.19H1012.54V2018H996.406ZM1076.83 2018L1112.47 1948.2H1126.43L1162.07 2018H1145.64L1136.13 1998.69L1142.96 2003.64H1095.74L1102.57 1998.69L1093.07 2018H1076.83ZM1119.2 1963.65L1104.25 1994.83L1100.99 1991.27H1137.72L1134.55 1994.83L1119.5 1963.65H1119.2ZM1204.37 2018.99C1193.22 2018.99 1184.74 2016.48 1178.93 2011.47C1173.12 2006.45 1170.22 1999.09 1170.22 1989.39V1948.2H1186.35V1988.89C1186.35 1994.37 1187.87 1998.5 1190.91 2001.27C1193.94 2003.97 1198.43 2005.33 1204.37 2005.33C1210.38 2005.33 1214.87 2003.97 1217.84 2001.27C1220.81 1998.5 1222.29 1994.37 1222.29 1988.89V1948.2H1238.33V1989.39C1238.33 1999.09 1235.46 2006.45 1229.72 2011.47C1223.97 2016.48 1215.53 2018.99 1204.37 2018.99ZM1275 2018V1961.37H1248.37V1948.2H1317.76V1961.37H1291.13V2018H1275ZM1354.11 2018.99C1349.95 2018.99 1345.89 2018.69 1341.93 2018.1C1337.97 2017.5 1334.31 2016.65 1330.94 2015.52C1327.58 2014.4 1324.61 2013.02 1322.03 2011.37L1327.18 1998.99C1329.89 2000.58 1332.66 2001.9 1335.5 2002.95C1338.4 2003.94 1341.44 2004.7 1344.6 2005.23C1347.84 2005.69 1351.17 2005.92 1354.6 2005.92C1359.75 2005.92 1363.64 2005.26 1366.28 2003.94C1368.92 2002.56 1370.24 2000.58 1370.24 1998C1370.24 1996.48 1369.82 1995.3 1368.96 1994.44C1368.17 1993.51 1366.94 1992.79 1365.29 1992.26C1363.71 1991.73 1361.73 1991.3 1359.35 1990.97L1345 1988.79C1337.81 1987.74 1332.46 1985.53 1328.96 1982.16C1325.46 1978.8 1323.71 1974.41 1323.71 1968.99C1323.71 1964.51 1325.03 1960.65 1327.67 1957.41C1330.38 1954.11 1334.11 1951.6 1338.86 1949.89C1343.68 1948.11 1349.22 1947.21 1355.49 1947.21C1359.26 1947.21 1362.89 1947.51 1366.38 1948.11C1369.88 1948.7 1373.08 1949.59 1375.99 1950.78C1378.89 1951.97 1381.43 1953.42 1383.61 1955.13L1378.56 1967.11C1375.26 1964.74 1371.7 1963.02 1367.87 1961.97C1364.04 1960.84 1359.75 1960.28 1355 1960.28C1351.76 1960.28 1348.99 1960.61 1346.68 1961.27C1344.37 1961.87 1342.62 1962.76 1341.44 1963.95C1340.25 1965.13 1339.65 1966.59 1339.65 1968.3C1339.65 1970.48 1340.48 1972.13 1342.13 1973.25C1343.84 1974.31 1346.55 1975.13 1350.25 1975.73L1363.91 1977.9C1371.3 1979.03 1376.84 1981.2 1380.54 1984.44C1384.3 1987.61 1386.18 1991.86 1386.18 1997.21C1386.18 2001.63 1384.86 2005.49 1382.22 2008.79C1379.65 2012.03 1375.95 2014.53 1371.14 2016.32C1366.32 2018.1 1360.64 2018.99 1354.11 2018.99ZM1398.36 1997.41V1985.23H1432.22V1997.41H1398.36ZM1448.96 2018V1948.2H1480.25C1489.03 1948.2 1496.45 1949.56 1502.52 1952.26C1508.59 1954.97 1513.21 1958.9 1516.38 1964.04C1519.55 1969.19 1521.13 1975.53 1521.13 1983.05C1521.13 1990.58 1519.55 1996.95 1516.38 2002.16C1513.21 2007.31 1508.59 2011.23 1502.52 2013.94C1496.45 2016.65 1489.03 2018 1480.25 2018H1448.96ZM1465.1 2004.93H1479.26C1487.84 2004.93 1494.17 2003.15 1498.27 1999.59C1502.42 1996.02 1504.5 1990.51 1504.5 1983.05C1504.5 1975.59 1502.42 1970.12 1498.27 1966.62C1494.17 1963.05 1487.84 1961.27 1479.26 1961.27H1465.1V2004.93ZM1536.85 2018V1948.2H1591V1960.78H1552.49V1976.32H1588.23V1988.89H1552.49V2005.43H1591V2018H1536.85ZM1604.87 1997.41V1985.23H1638.72V1997.41H1604.87ZM1681.56 2018.99C1677.4 2018.99 1673.35 2018.69 1669.39 2018.1C1665.43 2017.5 1661.76 2016.65 1658.4 2015.52C1655.03 2014.4 1652.06 2013.02 1649.49 2011.37L1654.63 1998.99C1657.34 2000.58 1660.11 2001.9 1662.95 2002.95C1665.85 2003.94 1668.89 2004.7 1672.06 2005.23C1675.29 2005.69 1678.63 2005.92 1682.06 2005.92C1687.21 2005.92 1691.1 2005.26 1693.74 2003.94C1696.38 2002.56 1697.7 2000.58 1697.7 1998C1697.7 1996.48 1697.27 1995.3 1696.41 1994.44C1695.62 1993.51 1694.4 1992.79 1692.75 1992.26C1691.17 1991.73 1689.19 1991.3 1686.81 1990.97L1672.45 1988.79C1665.26 1987.74 1659.91 1985.53 1656.42 1982.16C1652.92 1978.8 1651.17 1974.41 1651.17 1968.99C1651.17 1964.51 1652.49 1960.65 1655.13 1957.41C1657.84 1954.11 1661.56 1951.6 1666.32 1949.89C1671.13 1948.11 1676.68 1947.21 1682.95 1947.21C1686.71 1947.21 1690.34 1947.51 1693.84 1948.11C1697.34 1948.7 1700.54 1949.59 1703.44 1950.78C1706.35 1951.97 1708.89 1953.42 1711.06 1955.13L1706.02 1967.11C1702.72 1964.74 1699.15 1963.02 1695.32 1961.97C1691.5 1960.84 1687.21 1960.28 1682.45 1960.28C1679.22 1960.28 1676.45 1960.61 1674.14 1961.27C1671.83 1961.87 1670.08 1962.76 1668.89 1963.95C1667.7 1965.13 1667.11 1966.59 1667.11 1968.3C1667.11 1970.48 1667.93 1972.13 1669.58 1973.25C1671.3 1974.31 1674.01 1975.13 1677.7 1975.73L1691.36 1977.9C1698.76 1979.03 1704.3 1981.2 1708 1984.44C1711.76 1987.61 1713.64 1991.86 1713.64 1997.21C1713.64 2001.63 1712.32 2005.49 1709.68 2008.79C1707.1 2012.03 1703.41 2014.53 1698.59 2016.32C1693.77 2018.1 1688.1 2018.99 1681.56 2018.99ZM1727.01 2018V1948.2H1781.17V1960.78H1742.66V1976.32H1778.4V1988.89H1742.66V2005.43H1781.17V2018H1727.01ZM1797.11 2018V1948.2H1813.24V2018H1797.11ZM1831.53 2018V1948.2H1844.1L1887.16 1996.52H1885.48V1948.2H1900.73V2018H1887.76L1845.19 1969.98H1846.87V2018H1831.53ZM1919.12 2018V1948.2H1973.27V1960.78H1934.76V1976.32H1970.5V1988.89H1934.76V2005.43H1973.27V2018H1919.12Z" fill="#014263"/>
<path d="M1981 1865C1916.75 1790.69 1888.1 1754 1865.08 1754C1819.91 1760.78 1797.75 1771.1 1710.81 1811.98C1680.46 1826.25 1646.42 1843.46 1605.12 1865H1981Z" fill="#84C344"/>
<path d="M1525 1865H1605.12C1646.42 1843.46 1680.46 1826.25 1710.81 1811.98C1537.79 1765.01 1553.98 1795.52 1525 1865Z" fill="#00AAE0"/>
</svg>
