<svg width="1930" height="1930" viewBox="0 0 1930 1930" fill="none" xmlns="http://www.w3.org/2000/svg">
<path d="M993.775 1453.91H1334.69C1349.06 1438.92 1351.62 1430.72 1329.79 1417.1C1349.9 1347.95 1330.49 1339.14 1290.55 1328.77L1297.9 1299.32C1231.68 1257.61 1185.08 928.81 1263.57 916.542C1275.52 903.203 1275.39 896.158 1258.66 884.643H1226.78V869.921H1248.85C1264.85 824.025 1245.89 820.56 1231.68 798.763C1253.95 752.881 1267.61 728.452 1293 685.892C1288.53 676.551 1283.88 672.883 1273.38 668.716C1261.81 669.33 1255.56 669.542 1243.95 668.716C1242.53 659.378 1236.63 656.244 1224.32 651.54C1215.82 647.927 1212.53 648.1 1199.8 644.178C1232.27 574.436 1234.67 543.153 1165.46 523.946C1100.6 531.58 1097.04 564.69 1113.95 644.178C1101.13 645.789 1095.49 647.582 1086.98 651.54C1083.05 658.527 1078.33 659.644 1079.62 668.716C1067.69 666.855 1059.38 666.481 1042.83 668.716C1029.65 673.542 1029.88 677.947 1030.56 685.892C1052.46 730.446 1064.69 755.541 1086.98 798.763C1065.78 823.901 1062.98 839.34 1072.26 869.921H1091.88V884.643H1060C1039.52 896.964 1045.29 904.006 1050.19 916.542C1148.29 931.264 1086.98 1242.89 1030.56 1299.32L1035.47 1328.77C995.602 1329.21 982.825 1343.26 993.775 1417.1C976.466 1432.08 973.356 1440.29 993.775 1453.91Z" fill="#00AAE0"/>
<path d="M1378.84 1449H1503.05C1551.76 1398.43 1599.89 1347.85 1645.55 1299.32C1584.86 1196.27 1570.15 1044.14 1619.2 985.246C1620.51 974.841 1616.07 971.353 1606.94 965.616C1596.95 914.909 1612.13 869.654 1663.35 769.318C1639.4 760.705 1619.71 768.881 1570.15 813.485C1559.12 808.295 1556.02 800.374 1560.34 769.318C1564.08 711.323 1553.3 697.011 1521.1 690.799C1487.66 701.836 1479.38 719.367 1481.85 769.318C1482.78 797.17 1482.25 807.51 1476.95 813.485C1422.77 767.028 1399.05 755.768 1376.39 769.318C1430.35 866.498 1444.14 909.24 1440.16 965.616C1427.99 970.088 1424.9 974.411 1425.44 985.246C1476.95 1058.86 1452.42 1233.07 1400.92 1299.32C1397.74 1312.01 1398.2 1318.75 1403.37 1328.77C1386.15 1334.22 1380.69 1339.59 1373.94 1350.85C1360.19 1395.52 1365.48 1415.29 1378.84 1449Z" fill="#84C344"/>
<path fill-rule="evenodd" clip-rule="evenodd" d="M1006.03 11.1699C983.952 -3.5616 932.447 -1.0919 915.278 3.75821C851.509 11.1767 69.1253 791.402 2.89088 928.784C-1.16372 964.932 -4.73537 984.842 20.0595 1029.39C351.18 1397.47 540.034 1596.22 912.837 1920.11C947.603 1934.82 993.775 1932.38 1018.3 1917.66C1114.14 1843.23 1313.05 1646.22 1503.05 1449H1378.84C1365.48 1415.29 1360.19 1395.52 1373.94 1350.85C1380.69 1339.59 1386.15 1334.22 1403.37 1328.77C1398.2 1318.75 1397.74 1312.01 1400.92 1299.32C1452.42 1233.07 1476.95 1058.86 1425.44 985.246C1424.9 974.411 1427.99 970.088 1440.16 965.616C1444.14 909.24 1430.35 866.498 1376.39 769.318C1399.05 755.768 1422.77 767.028 1476.95 813.485C1482.25 807.51 1482.78 797.17 1481.85 769.318C1479.38 719.367 1487.66 701.836 1521.1 690.799C1553.3 697.011 1564.08 711.323 1560.34 769.318C1556.02 800.374 1559.12 808.295 1570.15 813.485C1619.71 768.881 1639.4 760.705 1663.35 769.318C1612.13 869.654 1596.95 914.909 1606.94 965.616C1616.07 971.353 1620.51 974.841 1619.2 985.246C1570.15 1044.14 1584.86 1196.27 1645.55 1299.32C1768.17 1168.97 1872.96 1053.4 1923.32 992.581C1933.2 948.367 1933.81 935.515 1913.52 906.727C1844.36 808.578 1121.31 88.1087 1006.03 11.1699ZM873.583 1206.05C875.052 1310.73 875.065 1369.82 873.583 1475.96C860.615 1486.22 850.333 1488.88 822.077 1483.32C584.583 1253.48 336.464 1019.6 331.546 980.312C322.663 944.113 330.519 927.003 346.262 896.885C775.297 467.473 878.442 369.847 898.109 366.882C983.964 335.01 1055.09 401.26 1028.1 504.29C883.489 677.16 803.51 773.897 674.918 943.506V992.581L873.583 1206.05ZM1334.69 1453.91H993.775C973.356 1440.29 976.466 1432.08 993.775 1417.1C982.825 1343.26 995.602 1329.21 1035.47 1328.77L1030.56 1299.32C1086.98 1242.89 1148.29 931.264 1050.19 916.542C1045.29 904.006 1039.52 896.964 1060 884.643H1091.88V869.921H1072.26C1062.98 839.34 1065.78 823.901 1086.98 798.763C1064.69 755.541 1052.46 730.446 1030.56 685.892C1029.88 677.947 1029.65 673.542 1042.83 668.716C1059.38 666.481 1067.69 666.855 1079.62 668.716C1078.33 659.644 1083.05 658.527 1086.98 651.54C1095.49 647.582 1101.13 645.789 1113.95 644.178C1097.04 564.69 1100.6 531.58 1165.46 523.946C1234.67 543.153 1232.27 574.436 1199.8 644.178C1212.53 648.1 1215.82 647.927 1224.32 651.54C1236.63 656.244 1242.53 659.378 1243.95 668.716C1255.56 669.542 1261.81 669.33 1273.38 668.716C1283.88 672.883 1288.53 676.551 1293 685.892C1267.61 728.452 1253.95 752.881 1231.68 798.763C1245.89 820.56 1264.85 824.025 1248.85 869.921H1226.78V884.643H1258.66C1275.39 896.158 1275.52 903.203 1263.57 916.542C1185.08 928.81 1231.68 1257.61 1297.9 1299.32L1290.55 1328.77C1330.49 1339.14 1349.9 1347.95 1329.79 1417.1C1351.62 1430.72 1349.06 1438.92 1334.69 1453.91Z" fill="#014263"/>
</svg>
