<svg width="691" height="691" viewBox="0 0 691 691" fill="none" xmlns="http://www.w3.org/2000/svg">
<rect width="691" height="691" fill="white"/>
<path d="M307.182 434.09C301.132 434.6 286.952 436.17 275.682 437.58C264.412 438.99 251.132 440.98 246.182 442C241.232 443.01 232.452 445.04 226.682 446.5C220.912 447.96 210.332 451.1 203.182 453.49C196.032 455.87 184.782 460.17 178.182 463.03C171.582 465.9 162.582 470.04 158.182 472.24C153.782 474.44 150.042 476.29 149.872 476.37C149.692 476.44 153.892 491.8 159.202 510.5C164.502 529.2 168.912 544.63 169.012 544.78C169.102 544.94 176.162 541.73 184.682 537.64C193.202 533.56 204.452 528.54 209.682 526.5C214.912 524.45 227.842 520.58 238.432 517.89C249.022 515.2 264.992 511.7 273.932 510.11C282.872 508.52 294.912 506.6 300.682 505.86C307.762 504.94 322.102 504.51 344.682 504.53C373.392 504.56 380.472 504.88 394.182 506.75C402.982 507.94 416.032 510.11 423.182 511.55C430.332 513 443.162 515.93 451.682 518.06C460.202 520.19 472.132 523.77 478.182 526C484.232 528.24 494.132 532.49 500.182 535.45C506.232 538.41 512.982 541.96 515.182 543.34L519.182 545.84C535.252 493.65 540.092 478.05 540.322 477.5C540.542 476.95 534.522 473.47 526.952 469.78C519.382 466.08 510.702 462.09 507.682 460.91C504.662 459.73 497.012 457 490.682 454.84C484.352 452.68 472.202 449.17 463.682 447.05C455.162 444.93 440.982 441.99 432.182 440.53C423.382 439.07 408.762 436.96 399.682 435.84C386.972 434.27 375.712 433.74 350.682 433.49C332.802 433.32 313.232 433.59 307.182 434.09Z" fill="#014263"/>
<path d="M484.552 272.73C484.902 272.3 492.832 274.6 502.182 277.84C511.532 281.08 523.012 285.32 527.682 287.26C532.352 289.2 542.262 293.72 549.682 297.31C557.102 300.9 567.682 306.32 573.182 309.35L583.182 314.86C584.942 309.93 592.282 289.15 600.622 265.5C608.972 241.85 615.662 222.44 615.492 222.36C615.322 222.28 604.382 217.62 591.182 212.01C577.982 206.39 557.052 197.78 544.682 192.86C532.302 187.95 520.042 183.05 517.432 181.97L512.682 180C505.832 202.09 499.462 222.45 494.122 239.5C488.782 256.55 484.352 270.61 484.292 270.74L484.552 272.73Z" fill="#014263"/>
<path d="M401.482 255.29C401.642 255.41 400.602 264.5 399.172 275.5C397.742 286.5 394.802 309 392.632 325.5C390.462 342 388.692 356.51 388.682 357.75C388.682 359.83 389.352 360.08 397.432 361.1C402.242 361.7 414.512 363.73 424.682 365.6C434.852 367.48 447.912 370.09 453.682 371.42C459.452 372.74 464.262 373.75 464.362 373.66C464.462 373.57 468.902 351 474.232 323.5C479.562 296 484.202 273.15 484.552 272.73L484.292 270.74C484.232 270.88 475.852 268.98 465.682 266.52C455.512 264.07 438.182 260.45 427.182 258.49C416.182 256.53 406.172 254.71 404.932 254.46L402.682 254L401.482 255.29Z" fill="#84C344"/>
<path d="M286.682 200.5V254L286.982 255.27C287.092 255.15 293.482 254.52 301.182 253.87C308.882 253.23 328.912 252.7 345.682 252.7C362.452 252.7 381.812 253.24 388.682 253.89C395.562 254.55 401.312 255.18 401.482 255.29L402.682 254V147H286.682V200.5Z" fill="#84C344"/>
<path d="M286.682 254C282.422 254.74 273.082 256.35 263.182 258.04C253.282 259.74 238.882 262.47 231.182 264.11C223.482 265.74 214.482 267.75 211.182 268.57C207.882 269.39 205.112 269.94 205.022 269.78L204.182 272.26C219.602 350.72 224.242 373.73 224.432 374C224.632 374.27 228.022 373.68 231.982 372.67C235.942 371.67 243.912 369.75 249.682 368.42C255.452 367.08 267.832 364.64 277.182 362.99C286.532 361.34 295.642 360 297.432 360C299.862 360 300.682 359.56 300.682 358.25C300.692 357.29 298.222 338.5 295.212 316.5C292.192 294.5 289.062 271.77 288.262 266C287.452 260.23 286.872 255.4 286.982 255.27L286.682 254Z" fill="#014263"/>
<path d="M205.022 269.78C204.932 269.63 199.832 253.75 193.692 234.5C187.552 215.25 181.102 195.1 179.362 189.73C177.612 184.35 175.732 180.15 175.182 180.39C174.632 180.63 161.802 185.85 146.682 191.99C131.552 198.12 109.052 207.44 96.6824 212.7C84.3024 217.96 74.1024 222.31 74.0024 222.38C73.9024 222.45 76.9424 231.5 80.7524 242.5C84.2676 252.649 90.5069 270.672 95.1897 284.199L95.2115 284.262L95.2236 284.297L96.3324 287.5C101.092 301.25 105.262 312.86 105.582 313.29C105.912 313.72 118.782 307.85 134.182 300.24C157.432 288.75 165.752 285.2 183.182 279.33L204.182 272.26L205.022 269.78Z" fill="#014263"/>
</svg>
