<svg width="2105" height="524" viewBox="0 0 2105 524" fill="none" xmlns="http://www.w3.org/2000/svg">
<path d="M711.883 453V312H732.083V376.2H729.283C732.216 368.733 736.816 363.133 743.083 359.4C749.349 355.533 756.549 353.6 764.683 353.6C772.416 353.6 778.816 355.067 783.883 358C789.083 360.8 792.949 365.133 795.483 371C798.016 376.733 799.283 384 799.283 392.8V453H779.083V394C779.083 388.4 778.349 383.867 776.883 380.4C775.416 376.8 773.216 374.133 770.283 372.4C767.349 370.667 763.549 369.8 758.883 369.8C753.549 369.8 748.816 370.933 744.683 373.2C740.683 375.467 737.549 378.733 735.283 383C733.149 387.267 732.083 392.2 732.083 397.8V453H711.883ZM858.317 454.8C851.517 454.8 845.384 453.467 839.917 450.8C834.584 448.133 830.384 444.533 827.317 440C824.25 435.467 822.717 430.333 822.717 424.6C822.717 417.4 824.517 411.733 828.117 407.6C831.85 403.333 837.917 400.333 846.317 398.6C854.85 396.733 866.317 395.8 880.717 395.8H890.117V408.2H880.917C873.717 408.2 867.65 408.467 862.717 409C857.784 409.533 853.85 410.4 850.917 411.6C847.984 412.667 845.85 414.2 844.517 416.2C843.317 418.2 842.717 420.6 842.717 423.4C842.717 428.467 844.45 432.6 847.917 435.8C851.384 438.867 856.184 440.4 862.317 440.4C867.25 440.4 871.584 439.267 875.317 437C879.05 434.6 881.984 431.4 884.117 427.4C886.384 423.4 887.517 418.8 887.517 413.6V390.6C887.517 383 885.917 377.533 882.717 374.2C879.517 370.867 874.25 369.2 866.917 369.2C861.317 369.2 855.717 370.067 850.117 371.8C844.517 373.4 838.784 376 832.917 379.6L826.717 365.4C830.184 363 834.184 360.933 838.717 359.2C843.25 357.467 847.984 356.133 852.917 355.2C857.984 354.133 862.85 353.6 867.517 353.6C876.45 353.6 883.784 355 889.517 357.8C895.384 360.6 899.717 364.867 902.517 370.6C905.317 376.333 906.717 383.733 906.717 392.8V453H887.717V431.2H889.517C888.45 436.133 886.45 440.4 883.517 444C880.717 447.467 877.184 450.133 872.917 452C868.65 453.867 863.784 454.8 858.317 454.8ZM969.339 454.8C961.472 454.8 954.872 453.333 949.539 450.4C944.339 447.467 940.406 443.133 937.739 437.4C935.206 431.533 933.939 424.2 933.939 415.4V355.4H954.139V415.6C954.139 420.8 954.806 425.133 956.139 428.6C957.606 432.067 959.806 434.6 962.739 436.2C965.806 437.8 969.606 438.6 974.139 438.6C979.206 438.6 983.672 437.467 987.539 435.2C991.406 432.933 994.406 429.667 996.539 425.4C998.672 421.133 999.739 416.2 999.739 410.6V355.4H1019.94V453H1000.34V431.6H1002.94C1000.27 439.067 996.006 444.8 990.139 448.8C984.272 452.8 977.339 454.8 969.339 454.8ZM1090.01 454.8C1077.87 454.8 1068.74 451.667 1062.61 445.4C1056.61 439.133 1053.61 430.067 1053.61 418.2V371H1034.61V355.4H1053.61V326H1073.81V355.4H1104.01V371H1073.81V416.6C1073.81 423.667 1075.27 429 1078.21 432.6C1081.27 436.2 1086.21 438 1093.01 438C1095.01 438 1097.01 437.733 1099.01 437.2C1101.14 436.667 1103.21 436.133 1105.21 435.6L1108.41 450.8C1106.41 452 1103.61 452.933 1100.01 453.6C1096.54 454.4 1093.21 454.8 1090.01 454.8ZM1155.65 454.8C1150.45 454.8 1145.39 454.333 1140.45 453.4C1135.52 452.467 1130.99 451.133 1126.85 449.4C1122.72 447.667 1119.05 445.533 1115.85 443L1121.65 429.4C1124.99 431.667 1128.52 433.667 1132.25 435.4C1135.99 437 1139.85 438.2 1143.85 439C1147.99 439.8 1151.99 440.2 1155.85 440.2C1162.92 440.2 1168.25 438.933 1171.85 436.4C1175.45 433.867 1177.25 430.467 1177.25 426.2C1177.25 422.733 1176.05 420.067 1173.65 418.2C1171.25 416.2 1167.65 414.667 1162.85 413.6L1143.85 409.8C1135.59 408.067 1129.32 405 1125.05 400.6C1120.79 396.2 1118.65 390.6 1118.65 383.8C1118.65 377.667 1120.32 372.333 1123.65 367.8C1126.99 363.267 1131.65 359.8 1137.65 357.4C1143.65 354.867 1150.59 353.6 1158.45 353.6C1162.99 353.6 1167.39 354.067 1171.65 355C1175.92 355.933 1179.92 357.267 1183.65 359C1187.52 360.733 1190.79 362.933 1193.45 365.6L1187.65 379.2C1185.12 376.933 1182.19 375 1178.85 373.4C1175.65 371.8 1172.32 370.6 1168.85 369.8C1165.39 368.867 1161.92 368.4 1158.45 368.4C1151.39 368.4 1146.05 369.733 1142.45 372.4C1138.99 374.933 1137.25 378.4 1137.25 382.8C1137.25 386.133 1138.32 388.867 1140.45 391C1142.59 393.133 1145.92 394.667 1150.45 395.6L1169.45 399.4C1178.12 401.133 1184.65 404.067 1189.05 408.2C1193.59 412.333 1195.85 417.933 1195.85 425C1195.85 431.133 1194.19 436.467 1190.85 441C1187.52 445.533 1182.79 449 1176.65 451.4C1170.65 453.667 1163.65 454.8 1155.65 454.8ZM1218.13 407.8V391.4H1275.73V407.8H1218.13ZM1344.2 454.8C1335.67 454.8 1328.13 452.8 1321.6 448.8C1315.2 444.667 1310.2 438.8 1306.6 431.2C1303 423.467 1301.2 414.467 1301.2 404.2C1301.2 393.667 1303 384.667 1306.6 377.2C1310.2 369.733 1315.2 363.933 1321.6 359.8C1328.13 355.667 1335.67 353.6 1344.2 353.6C1352.73 353.6 1360.07 355.733 1366.2 360C1372.47 364.133 1376.67 369.733 1378.8 376.8H1376.6V312H1396.8V453H1377V431H1379C1376.87 438.2 1372.67 444 1366.4 448.4C1360.27 452.667 1352.87 454.8 1344.2 454.8ZM1349.4 439.2C1357.67 439.2 1364.33 436.2 1369.4 430.2C1374.47 424.2 1377 415.533 1377 404.2C1377 392.733 1374.47 384.067 1369.4 378.2C1364.33 372.333 1357.67 369.4 1349.4 369.4C1341 369.4 1334.27 372.333 1329.2 378.2C1324.13 384.067 1321.6 392.733 1321.6 404.2C1321.6 415.533 1324.13 424.2 1329.2 430.2C1334.27 436.2 1341 439.2 1349.4 439.2ZM1470.96 454.8C1460.3 454.8 1451.1 452.8 1443.36 448.8C1435.76 444.667 1429.83 438.867 1425.56 431.4C1421.43 423.8 1419.36 414.8 1419.36 404.4C1419.36 394.267 1421.43 385.4 1425.56 377.8C1429.7 370.2 1435.36 364.267 1442.56 360C1449.76 355.733 1457.96 353.6 1467.16 353.6C1476.23 353.6 1483.96 355.6 1490.36 359.6C1496.9 363.467 1501.9 369 1505.36 376.2C1508.83 383.4 1510.56 392 1510.56 402V408.8H1435.36V396.4H1496.96L1493.56 399.2C1493.56 389.2 1491.36 381.467 1486.96 376C1482.56 370.533 1476.23 367.8 1467.96 367.8C1461.7 367.8 1456.36 369.267 1451.96 372.2C1447.7 375.133 1444.43 379.2 1442.16 384.4C1439.9 389.6 1438.76 395.667 1438.76 402.6V403.8C1438.76 411.533 1439.96 418.067 1442.36 423.4C1444.9 428.6 1448.56 432.533 1453.36 435.2C1458.16 437.867 1464.1 439.2 1471.16 439.2C1476.76 439.2 1482.23 438.333 1487.56 436.6C1493.03 434.733 1498.16 431.867 1502.96 428L1508.96 442C1504.56 446 1498.9 449.133 1491.96 451.4C1485.03 453.667 1478.03 454.8 1470.96 454.8ZM1534.73 407.8V391.4H1592.33V407.8H1534.73ZM1655.46 454.8C1650.26 454.8 1645.19 454.333 1640.26 453.4C1635.32 452.467 1630.79 451.133 1626.66 449.4C1622.52 447.667 1618.86 445.533 1615.66 443L1621.46 429.4C1624.79 431.667 1628.32 433.667 1632.06 435.4C1635.79 437 1639.66 438.2 1643.66 439C1647.79 439.8 1651.79 440.2 1655.66 440.2C1662.72 440.2 1668.06 438.933 1671.66 436.4C1675.26 433.867 1677.06 430.467 1677.06 426.2C1677.06 422.733 1675.86 420.067 1673.46 418.2C1671.06 416.2 1667.46 414.667 1662.66 413.6L1643.66 409.8C1635.39 408.067 1629.12 405 1624.86 400.6C1620.59 396.2 1618.46 390.6 1618.46 383.8C1618.46 377.667 1620.12 372.333 1623.46 367.8C1626.79 363.267 1631.46 359.8 1637.46 357.4C1643.46 354.867 1650.39 353.6 1658.26 353.6C1662.79 353.6 1667.19 354.067 1671.46 355C1675.72 355.933 1679.72 357.267 1683.46 359C1687.32 360.733 1690.59 362.933 1693.26 365.6L1687.46 379.2C1684.92 376.933 1681.99 375 1678.66 373.4C1675.46 371.8 1672.12 370.6 1668.66 369.8C1665.19 368.867 1661.72 368.4 1658.26 368.4C1651.19 368.4 1645.86 369.733 1642.26 372.4C1638.79 374.933 1637.06 378.4 1637.06 382.8C1637.06 386.133 1638.12 388.867 1640.26 391C1642.39 393.133 1645.72 394.667 1650.26 395.6L1669.26 399.4C1677.92 401.133 1684.46 404.067 1688.86 408.2C1693.39 412.333 1695.66 417.933 1695.66 425C1695.66 431.133 1693.99 436.467 1690.66 441C1687.32 445.533 1682.59 449 1676.46 451.4C1670.46 453.667 1663.46 454.8 1655.46 454.8ZM1763.93 454.8C1753.27 454.8 1744.07 452.8 1736.33 448.8C1728.73 444.667 1722.8 438.867 1718.53 431.4C1714.4 423.8 1712.33 414.8 1712.33 404.4C1712.33 394.267 1714.4 385.4 1718.53 377.8C1722.67 370.2 1728.33 364.267 1735.53 360C1742.73 355.733 1750.93 353.6 1760.13 353.6C1769.2 353.6 1776.93 355.6 1783.33 359.6C1789.87 363.467 1794.87 369 1798.33 376.2C1801.8 383.4 1803.53 392 1803.53 402V408.8H1728.33V396.4H1789.93L1786.53 399.2C1786.53 389.2 1784.33 381.467 1779.93 376C1775.53 370.533 1769.2 367.8 1760.93 367.8C1754.67 367.8 1749.33 369.267 1744.93 372.2C1740.67 375.133 1737.4 379.2 1735.13 384.4C1732.87 389.6 1731.73 395.667 1731.73 402.6V403.8C1731.73 411.533 1732.93 418.067 1735.33 423.4C1737.87 428.6 1741.53 432.533 1746.33 435.2C1751.13 437.867 1757.07 439.2 1764.13 439.2C1769.73 439.2 1775.2 438.333 1780.53 436.6C1786 434.733 1791.13 431.867 1795.93 428L1801.93 442C1797.53 446 1791.87 449.133 1784.93 451.4C1778 453.667 1771 454.8 1763.93 454.8ZM1823.75 332.8V311.8H1847.35V332.8H1823.75ZM1825.55 453V355.4H1845.75V453H1825.55ZM1874.19 453V355.4H1893.79V376.2H1891.59C1894.52 368.733 1899.12 363.133 1905.39 359.4C1911.65 355.533 1918.85 353.6 1926.99 353.6C1934.72 353.6 1941.12 355.067 1946.19 358C1951.39 360.8 1955.25 365.133 1957.79 371C1960.32 376.733 1961.59 384 1961.59 392.8V453H1941.39V394C1941.39 388.4 1940.65 383.867 1939.19 380.4C1937.72 376.8 1935.52 374.133 1932.59 372.4C1929.65 370.667 1925.85 369.8 1921.19 369.8C1915.85 369.8 1911.12 370.933 1906.99 373.2C1902.99 375.467 1899.85 378.733 1897.59 383C1895.45 387.267 1894.39 392.2 1894.39 397.8V453H1874.19ZM2035.22 454.8C2024.56 454.8 2015.36 452.8 2007.62 448.8C2000.02 444.667 1994.09 438.867 1989.82 431.4C1985.69 423.8 1983.62 414.8 1983.62 404.4C1983.62 394.267 1985.69 385.4 1989.82 377.8C1993.96 370.2 1999.62 364.267 2006.82 360C2014.02 355.733 2022.22 353.6 2031.42 353.6C2040.49 353.6 2048.22 355.6 2054.62 359.6C2061.16 363.467 2066.16 369 2069.62 376.2C2073.09 383.4 2074.82 392 2074.82 402V408.8H1999.62V396.4H2061.22L2057.82 399.2C2057.82 389.2 2055.62 381.467 2051.22 376C2046.82 370.533 2040.49 367.8 2032.22 367.8C2025.96 367.8 2020.62 369.267 2016.22 372.2C2011.96 375.133 2008.69 379.2 2006.42 384.4C2004.16 389.6 2003.02 395.667 2003.02 402.6V403.8C2003.02 411.533 2004.22 418.067 2006.62 423.4C2009.16 428.6 2012.82 432.533 2017.62 435.2C2022.42 437.867 2028.36 439.2 2035.42 439.2C2041.02 439.2 2046.49 438.333 2051.82 436.6C2057.29 434.733 2062.42 431.867 2067.22 428L2073.22 442C2068.82 446 2063.16 449.133 2056.22 451.4C2049.29 453.667 2042.29 454.8 2035.22 454.8Z" fill="#014263"/>
<path d="M775.933 255.75C761.433 255.75 748.933 253.167 738.433 248C728.099 242.667 720.099 235.25 714.433 225.75C708.933 216.083 706.183 204.75 706.183 191.75C706.183 179.083 708.849 168 714.183 158.5C719.516 148.833 726.933 141.333 736.433 136C746.099 130.5 757.016 127.75 769.183 127.75C781.183 127.75 791.516 130.333 800.183 135.5C808.849 140.5 815.516 147.667 820.183 157C825.016 166.333 827.433 177.417 827.433 190.25V199.75H737.183V180.25H800.183L796.183 183.75C796.183 173.583 793.933 165.917 789.433 160.75C785.099 155.417 778.849 152.75 770.683 152.75C764.516 152.75 759.266 154.167 754.933 157C750.599 159.833 747.266 163.917 744.933 169.25C742.599 174.583 741.433 181 741.433 188.5V190.5C741.433 199 742.683 206 745.183 211.5C747.849 216.833 751.766 220.833 756.933 223.5C762.266 226.167 768.849 227.5 776.683 227.5C783.349 227.5 790.099 226.5 796.933 224.5C803.766 222.5 809.933 219.417 815.433 215.25L825.433 240.5C819.266 245.167 811.683 248.917 802.683 251.75C793.849 254.417 784.933 255.75 775.933 255.75ZM756.933 114.25L782.683 63H818.683L781.933 114.25H756.933ZM909.14 255.75C895.806 255.75 884.14 253.167 874.14 248C864.306 242.667 856.723 235.167 851.39 225.5C846.056 215.833 843.39 204.417 843.39 191.25C843.39 178.083 846.056 166.75 851.39 157.25C856.723 147.75 864.306 140.5 874.14 135.5C884.14 130.333 895.806 127.75 909.14 127.75C917.14 127.75 925.056 128.917 932.89 131.25C940.89 133.583 947.39 136.917 952.39 141.25L941.89 167.25C937.89 163.917 933.223 161.333 927.89 159.5C922.556 157.5 917.556 156.5 912.89 156.5C903.056 156.5 895.39 159.583 889.89 165.75C884.556 171.75 881.89 180.333 881.89 191.5C881.89 202.5 884.556 211.167 889.89 217.5C895.39 223.667 903.056 226.75 912.89 226.75C917.556 226.75 922.556 225.833 927.89 224C933.223 222.167 937.89 219.5 941.89 216L952.39 242C947.39 246.167 940.89 249.5 932.89 252C924.89 254.5 916.973 255.75 909.14 255.75ZM968.774 253V76.75H1006.52V153.25H1003.02C1006.86 145.083 1012.52 138.833 1020.02 134.5C1027.69 130 1036.36 127.75 1046.02 127.75C1055.86 127.75 1063.94 129.667 1070.27 133.5C1076.61 137.167 1081.36 142.833 1084.52 150.5C1087.69 158 1089.27 167.583 1089.27 179.25V253H1051.52V181C1051.52 175.333 1050.77 170.75 1049.27 167.25C1047.94 163.583 1045.86 161 1043.02 159.5C1040.36 157.833 1036.94 157 1032.77 157C1027.44 157 1022.77 158.167 1018.77 160.5C1014.94 162.667 1011.94 165.833 1009.77 170C1007.61 174.167 1006.52 179 1006.52 184.5V253H968.774ZM1181.21 255.75C1166.71 255.75 1154.21 253.167 1143.71 248C1133.37 242.667 1125.37 235.25 1119.71 225.75C1114.21 216.083 1111.46 204.75 1111.46 191.75C1111.46 179.083 1114.12 168 1119.46 158.5C1124.79 148.833 1132.21 141.333 1141.71 136C1151.37 130.5 1162.29 127.75 1174.46 127.75C1186.46 127.75 1196.79 130.333 1205.46 135.5C1214.12 140.5 1220.79 147.667 1225.46 157C1230.29 166.333 1232.71 177.417 1232.71 190.25V199.75H1142.46V180.25H1205.46L1201.46 183.75C1201.46 173.583 1199.21 165.917 1194.71 160.75C1190.37 155.417 1184.12 152.75 1175.96 152.75C1169.79 152.75 1164.54 154.167 1160.21 157C1155.87 159.833 1152.54 163.917 1150.21 169.25C1147.87 174.583 1146.71 181 1146.71 188.5V190.5C1146.71 199 1147.96 206 1150.46 211.5C1153.12 216.833 1157.04 220.833 1162.21 223.5C1167.54 226.167 1174.12 227.5 1181.96 227.5C1188.62 227.5 1195.37 226.5 1202.21 224.5C1209.04 222.5 1215.21 219.417 1220.71 215.25L1230.71 240.5C1224.54 245.167 1216.96 248.917 1207.96 251.75C1199.12 254.417 1190.21 255.75 1181.21 255.75ZM1314.41 255.75C1301.08 255.75 1289.41 253.167 1279.41 248C1269.58 242.667 1262 235.167 1256.66 225.5C1251.33 215.833 1248.66 204.417 1248.66 191.25C1248.66 178.083 1251.33 166.75 1256.66 157.25C1262 147.75 1269.58 140.5 1279.41 135.5C1289.41 130.333 1301.08 127.75 1314.41 127.75C1322.41 127.75 1330.33 128.917 1338.16 131.25C1346.16 133.583 1352.66 136.917 1357.66 141.25L1347.16 167.25C1343.16 163.917 1338.5 161.333 1333.16 159.5C1327.83 157.5 1322.83 156.5 1318.16 156.5C1308.33 156.5 1300.66 159.583 1295.16 165.75C1289.83 171.75 1287.16 180.333 1287.16 191.5C1287.16 202.5 1289.83 211.167 1295.16 217.5C1300.66 223.667 1308.33 226.75 1318.16 226.75C1322.83 226.75 1327.83 225.833 1333.16 224C1338.5 222.167 1343.16 219.5 1347.16 216L1357.66 242C1352.66 246.167 1346.16 249.5 1338.16 252C1330.16 254.5 1322.25 255.75 1314.41 255.75ZM1421.05 255.75C1413.88 255.75 1406.96 255.167 1400.3 254C1393.63 252.833 1387.55 251.25 1382.05 249.25C1376.55 247.25 1371.71 244.75 1367.55 241.75L1376.55 217.25C1380.71 219.75 1385.21 222 1390.05 224C1395.05 225.833 1400.21 227.25 1405.55 228.25C1410.88 229.25 1416.13 229.75 1421.3 229.75C1428.46 229.75 1433.63 228.667 1436.8 226.5C1440.13 224.167 1441.8 221.167 1441.8 217.5C1441.8 214.167 1440.71 211.667 1438.55 210C1436.38 208.333 1433.21 207.167 1429.05 206.5L1402.8 201.75C1392.46 199.917 1384.46 196.167 1378.8 190.5C1373.3 184.667 1370.55 177.25 1370.55 168.25C1370.55 159.917 1372.88 152.75 1377.55 146.75C1382.21 140.583 1388.63 135.917 1396.8 132.75C1405.13 129.417 1414.55 127.75 1425.05 127.75C1431.05 127.75 1436.88 128.25 1442.55 129.25C1448.21 130.25 1453.55 131.75 1458.55 133.75C1463.71 135.75 1468.3 138.417 1472.3 141.75L1462.8 166C1459.63 163.5 1455.88 161.333 1451.55 159.5C1447.21 157.667 1442.8 156.25 1438.3 155.25C1433.8 154.083 1429.55 153.5 1425.55 153.5C1418.05 153.5 1412.63 154.75 1409.3 157.25C1405.96 159.583 1404.3 162.583 1404.3 166.25C1404.3 169.083 1405.21 171.5 1407.05 173.5C1409.05 175.333 1412.05 176.583 1416.05 177.25L1442.3 182C1453.13 183.833 1461.38 187.5 1467.05 193C1472.71 198.333 1475.55 205.667 1475.55 215C1475.55 223.5 1473.3 230.833 1468.8 237C1464.3 243 1457.96 247.667 1449.8 251C1441.63 254.167 1432.05 255.75 1421.05 255.75Z" fill="#014263"/>
<path d="M233.182 341.09C227.132 341.6 212.952 343.17 201.682 344.58C190.412 345.99 177.132 347.98 172.182 349C167.232 350.01 158.452 352.04 152.682 353.5C146.912 354.96 136.332 358.1 129.182 360.49C122.032 362.87 110.782 367.17 104.182 370.03C97.5824 372.9 88.5824 377.04 84.1824 379.24C79.7824 381.44 76.0424 383.29 75.8724 383.37C75.6924 383.44 79.8924 398.8 85.2024 417.5C90.5024 436.2 94.9124 451.63 95.0124 451.78C95.1024 451.94 102.162 448.73 110.682 444.64C119.202 440.56 130.452 435.54 135.682 433.5C140.912 431.45 153.842 427.58 164.432 424.89C175.022 422.2 190.992 418.7 199.932 417.11C208.872 415.52 220.912 413.6 226.682 412.86C233.762 411.94 248.102 411.51 270.682 411.53C299.392 411.56 306.472 411.88 320.182 413.75C328.982 414.94 342.032 417.11 349.182 418.55C356.332 420 369.162 422.93 377.682 425.06C386.202 427.19 398.132 430.77 404.182 433C410.232 435.24 420.132 439.49 426.182 442.45C432.232 445.41 438.982 448.96 441.182 450.34L445.182 452.84C461.252 400.65 466.092 385.05 466.322 384.5C466.542 383.95 460.522 380.47 452.952 376.78C445.382 373.08 436.702 369.09 433.682 367.91C430.662 366.73 423.012 364 416.682 361.84C410.352 359.68 398.202 356.17 389.682 354.05C381.162 351.93 366.982 348.99 358.182 347.53C349.382 346.07 334.762 343.96 325.682 342.84C312.972 341.27 301.712 340.74 276.682 340.49C258.802 340.32 239.232 340.59 233.182 341.09Z" fill="#014263"/>
<path d="M410.552 179.73C410.902 179.3 418.832 181.6 428.182 184.84C437.532 188.08 449.012 192.32 453.682 194.26C458.352 196.2 468.262 200.72 475.682 204.31C483.102 207.9 493.682 213.32 499.182 216.35L509.182 221.86C510.942 216.93 518.282 196.15 526.622 172.5C534.972 148.85 541.662 129.44 541.492 129.36C541.322 129.28 530.382 124.62 517.182 119.01C503.982 113.39 483.052 104.78 470.682 99.86C458.302 94.95 446.042 90.05 443.432 88.97L438.682 87C431.832 109.09 425.462 129.45 420.122 146.5C414.782 163.55 410.352 177.61 410.292 177.74L410.552 179.73Z" fill="#014263"/>
<path d="M327.482 162.29C327.642 162.41 326.602 171.5 325.172 182.5C323.742 193.5 320.802 216 318.632 232.5C316.462 249 314.692 263.51 314.682 264.75C314.682 266.83 315.352 267.08 323.432 268.1C328.242 268.7 340.512 270.73 350.682 272.6C360.852 274.48 373.912 277.09 379.682 278.42C385.452 279.74 390.262 280.75 390.362 280.66C390.462 280.57 394.902 258 400.232 230.5C405.562 203 410.202 180.15 410.552 179.73L410.292 177.74C410.232 177.88 401.852 175.98 391.682 173.52C381.512 171.07 364.182 167.45 353.182 165.49C342.182 163.53 332.172 161.71 330.932 161.46L328.682 161L327.482 162.29Z" fill="#84C344"/>
<path d="M212.682 107.5V161L212.982 162.27C213.092 162.15 219.482 161.52 227.182 160.87C234.882 160.23 254.912 159.7 271.682 159.7C288.452 159.7 307.812 160.24 314.682 160.89C321.562 161.55 327.312 162.18 327.482 162.29L328.682 161V54H212.682V107.5Z" fill="#84C344"/>
<path d="M212.682 161C208.422 161.74 199.082 163.35 189.182 165.04C179.282 166.74 164.882 169.47 157.182 171.11C149.482 172.74 140.482 174.75 137.182 175.57C133.882 176.39 131.112 176.94 131.022 176.78L130.182 179.26C145.602 257.72 150.242 280.73 150.432 281C150.632 281.27 154.022 280.68 157.982 279.67C161.942 278.67 169.912 276.75 175.682 275.42C181.452 274.08 193.832 271.64 203.182 269.99C212.532 268.34 221.642 267 223.432 267C225.862 267 226.682 266.56 226.682 265.25C226.692 264.29 224.222 245.5 221.212 223.5C218.192 201.5 215.062 178.77 214.262 173C213.452 167.23 212.872 162.4 212.982 162.27L212.682 161Z" fill="#014263"/>
<path d="M131.022 176.78C130.932 176.63 125.832 160.75 119.692 141.5C113.552 122.25 107.102 102.1 105.362 96.73C103.612 91.35 101.732 87.15 101.182 87.39C100.632 87.63 87.8024 92.85 72.6824 98.99C57.5524 105.12 35.0524 114.44 22.6824 119.7C10.3024 124.96 0.102398 129.31 0.00239819 129.38C-0.0976018 129.45 2.9424 138.5 6.7524 149.5C10.2676 159.649 16.5069 177.672 21.1897 191.199L21.2115 191.262L21.2236 191.297L22.3324 194.5C27.0924 208.25 31.2624 219.86 31.5824 220.29C31.9124 220.72 44.7824 214.85 60.1824 207.24C83.4324 195.75 91.7524 192.2 109.182 186.33L130.182 179.26L131.022 176.78Z" fill="#014263"/>
<path d="M2104.68 253C2030.71 166.642 1997.72 124 1971.22 124C1919.22 131.878 1893.7 143.874 1793.61 191.381C1758.66 207.966 1719.48 227.971 1671.93 253H2104.68Z" fill="#84C344"/>
<path d="M1579.68 253H1671.93C1719.48 227.971 1758.66 207.966 1793.61 191.381C1594.4 136.801 1613.05 172.252 1579.68 253Z" fill="#00AAE0"/>
</svg>
